<?xml version="1.0" encoding="UTF-8" standalone="no"?>
<svg
   xmlns:dc="http://purl.org/dc/elements/1.1/"
   xmlns:cc="http://creativecommons.org/ns#"
   xmlns:rdf="http://www.w3.org/1999/02/22-rdf-syntax-ns#"
   xmlns:svg="http://www.w3.org/2000/svg"
   xmlns="http://www.w3.org/2000/svg"
   xmlns:sodipodi="http://sodipodi.sourceforge.net/DTD/sodipodi-0.dtd"
   xmlns:inkscape="http://www.inkscape.org/namespaces/inkscape"
   viewBox="0 -256 1792 1792"
   id="svg3037"
   version="1.1"
   inkscape:version="0.92.2 5c3e80d, 2017-08-06"
   width="100%"
   height="100%"
   sodipodi:docname="Chevron_up_font_awesome_blue.svg">
  <metadata
     id="metadata3047">
    <rdf:RDF>
      <cc:Work
         rdf:about="">
        <dc:format>image/svg+xml</dc:format>
        <dc:type
           rdf:resource="http://purl.org/dc/dcmitype/StillImage" />
        <dc:title />
      </cc:Work>
    </rdf:RDF>
  </metadata>
  <defs
     id="defs3045" />
  <sodipodi:namedview
     pagecolor="#ffffff"
     bordercolor="#666666"
     borderopacity="1"
     objecttolerance="10"
     gridtolerance="10"
     guidetolerance="10"
     inkscape:pageopacity="0"
     inkscape:pageshadow="2"
     inkscape:window-width="950"
     inkscape:window-height="681"
     id="namedview3043"
     showgrid="false"
     inkscape:zoom="0.4785570417131694"
     inkscape:cx="896.000009719322"
     inkscape:cy="896.0000097193217"
     inkscape:window-x="0"
     inkscape:window-y="0"
     inkscape:window-maximized="0"
     inkscape:current-layer="g3039" />
  <g
     transform="matrix(1,0,0,-1,68.338983,1217.0847)"
     id="g3039">
    <path
       d="m 1611,320 q 0,-53 -37,-90 l -75,-75 q -38,-38 -91,-38 -54,0 -90,38 L 832,640 346,155 q -36,-38 -90,-38 -54,0 -90,38 l -75,75 q -38,36 -38,90 0,53 38,91 l 651,651 q 37,37 90,37 52,0 91,-37 l 650,-651 q 38,-38 38,-91 z"
       id="path3041"
       inkscape:connector-curvature="0"
       style="fill:#2466b0;fill-opacity:1;opacity:1" />
  </g>
</svg>
